<svg version="1.1" xmlns="http://www.w3.org/2000/svg" xmlns:xlink="http://www.w3.org/1999/xlink" width="305" height="305" viewBox="0,0,305,305"><g transform="translate(-87.5,-27.5)"><g data-paper-data="{&quot;isPaintingLayer&quot;:true}" fill-rule="nonzero" stroke="none" stroke-linecap="butt" stroke-linejoin="miter" stroke-miterlimit="10" stroke-dasharray="" stroke-dashoffset="0" style="mix-blend-mode: normal"><path d="M87.5,318.4c0,-30.25271 0,-225.62831 0,-278c0,-8.20503 5.50428,-12.9 12.31875,-12.9c27.91312,0 215.60252,0 274.81875,0c11.24957,0 17.8625,4.65911 17.8625,12.8c0,51.31382 0,240.96066 0,274.1c0,9.64428 -9.32241,18.1 -20.18125,18.1c-34.25989,0 -216.44168,0 -270,0c-9.38343,0 -14.81875,-6.39609 -14.81875,-14.1z" fill="#000000" stroke-width="0"/><path d="M178.57242,129.034c-14.04744,10.72549 -29.10288,21.77449 -37.06714,37.57221c-2.00756,3.98215 -0.84801,9.4071 -0.86778,13.69379c-0.06504,14.10468 1.87753,28.36192 12.83972,38.46799c2.56547,2.36512 5.61647,4.14232 8.40219,6.24356c5.29663,0.36848 15.91368,1.11172 19.19071,1.29566c1.60802,0.09026 3.21543,0.83765 4.8002,0.5506c0.49354,-0.08939 0.67337,-0.74471 0.98199,-1.14009c1.05203,-1.34781 1.97073,-2.80263 3.09854,-4.08769c3.2318,-3.68241 6.35599,-7.46017 9.40976,-11.29151c0.79899,-1.00243 1.98668,-1.69793 2.62741,-2.80821c0.37446,-0.64888 0.03261,-1.52289 0.28008,-2.23001c2.07676,-5.93419 4.9737,-10.81214 5.4137,-17.07254c0.13853,-1.97111 -0.03801,-3.95179 -0.0443,-5.92775c-0.04128,-12.97811 -0.73425,-26.73382 -10.68666,-36.33003c-1.14751,-1.47162 -2.06809,-3.15258 -3.44255,-4.41484c-2.84871,-2.61616 -6.29094,-4.5317 -9.14345,-7.14373c-1.0395,-0.95186 -1.36988,-2.53332 -2.43394,-3.45765c-0.97126,-0.84371 -2.20998,-1.32021 -3.35847,-1.91976zM181.95759,100.73337l1.79087,0.23375c2.16342,0.92891 4.58388,1.40509 6.49027,2.78674c1.72378,1.2493 2.49669,3.49801 4.10538,4.89239c1.46871,1.27305 3.54123,1.71556 5,3c1.44475,1.27209 2.14769,3.2409 3.56605,4.54235c2.75088,2.52413 6.11924,4.31744 8.85655,6.85628c1.76175,1.63402 3.0383,3.72343 4.55745,5.58515c10.83632,11.11586 15.26926,25.42032 17.26081,40.50251c0.57459,4.35142 0.06462,8.7783 0.05253,13.16747c-0.01965,7.12902 -0.24856,14.17463 -2.63058,20.9997c-1.18301,3.3896 -2.77587,6.62503 -4,10c-0.68432,1.88669 -0.75654,4.00938 -1.71992,5.76999c-1.43639,2.62505 -3.57548,4.79922 -5.37259,7.1918c-3.31169,4.409 -6.9065,8.60525 -10.59024,12.70849c-5.85755,6.5246 -5.77894,9.15332 -15.91947,12.77222c-3.07131,1.09608 -6.50899,0.4219 -9.76719,0.55781c-10.16422,0.42398 -20.24231,-1.20985 -30.24191,-2.71155c-7.04948,-3.9598 -11.39996,-5.92669 -17.59781,-11.75644c-16.41814,-15.44302 -21.07614,-35.87894 -21.16028,-57.53201c-0.03371,-8.67482 -0.50539,-16.10163 3.13223,-24.30621c10.13635,-22.86233 32.88252,-37.72902 51.74674,-52.84509c0,0 5.98547,-4.78837 12.44113,-2.41534z" fill="#ffffff" stroke-width="0.5"/><path d="M356.82989,268.49239c-9.19239,9.19239 -18.38477,0 -18.38477,0l-1,-1c-1.45126,-1.53039 -3.10394,-2.89229 -4.35376,-4.59116c-1.02436,-1.3924 -1.40233,-3.18618 -2.40421,-4.59483c-4.09361,-5.75563 -9.36115,-10.60551 -13.52625,-16.30962c-4.65449,-6.37432 -6.75572,-11.35173 -10.72111,-18.09292c-5.68626,-9.66667 -11.11113,-19.05131 -15.68183,-29.32406c-0.56566,-1.27133 -1.15647,-2.5296 -1.74459,-3.77742c-0.4011,3.60635 -0.87204,7.19283 -1.14594,10.81558c0.2615,1.58489 0.62658,3.1596 0.73737,4.76048c0.18174,2.62607 0.2222,5.31144 0.2029,8.00974c0.59004,2.81032 0.97025,5.52926 -0.14488,7.59461c-0.0328,1.475 -0.06052,2.94073 -0.0696,4.38947l-0.80125,0.9535l0.66867,0.11144l-0.96487,5.78921c-0.9308,6.26618 -6.33311,11.07361 -12.85825,11.07361c-7.1797,0 -13,-5.8203 -13,-13v-8c-1.63817,-5.07551 -0.0038,-10.66667 0,-16c0.00115,-1.60324 0.05794,-3.19629 0.15248,-4.78259c-0.05505,-0.43044 -0.0973,-0.86216 -0.11978,-1.29586c-1.02943,-19.85837 -0.06709,-40.03224 -0.03271,-59.92156c0.01495,-8.64597 -0.46738,-11.78821 1.34776,-19.98679c0.44934,-2.02954 2.02629,-3.96845 1.65224,-6.01321c0,0 0.00001,-9.38132 7.96937,-12.20521c1.75036,-1.66316 9.02135,-7.02811 10.05574,-7.80523c15.97314,-1.83521 32.41228,-0.45708 44.16728,11.81804c1.78148,1.8603 3.79628,3.57788 5.12021,5.78731c1.06009,1.76913 1.12952,3.9737 1.87991,5.89478c2.34663,6.00769 5.70747,11.89937 6.63963,18.42794c0.32981,2.3099 -0.4848,4.71759 0,7c2.05759,9.68697 2.6564,21.07576 -3.28599,29.6836c-5.57933,8.08193 -13.36503,9.73294 -22.21013,11.14306c2.69727,6.0259 5.57267,11.98767 8.88721,17.69529c4.55838,7.84949 8.86364,16.55321 14.25339,23.86363c1.67455,2.2713 3.74874,4.22092 5.53563,6.40493c3.03872,3.71404 6.14177,7.38566 8.93811,11.28546c1.12736,1.57222 1.77216,3.55611 3.24203,4.81401l1,1c0,0 9.19239,9.19239 0,18.38477zM289.71022,161.47111c0.51734,-0.52042 1.07385,-1.04269 1.67156,-1.56698c2.8433,-2.49407 7.56051,-0.25006 11.33809,-0.43627c2.98513,-0.14714 5.98926,-0.18247 8.99607,-0.13515c0.89588,-0.09775 2.71299,-0.535 3.7076,-0.55414c-0.06427,-1.1849 0.19163,-3.42525 0.21396,-4.47857c0.04222,-1.9915 -0.54726,-3.94616 -0.83213,-5.91763c-0.33369,-2.30935 0.33052,-4.69019 0,-7c-0.68768,-4.80578 -3.77168,-9.09089 -5.36037,-13.57207c-0.23487,-0.66248 0.15832,-1.45982 -0.12009,-2.10522c-0.11951,-0.27703 -0.6456,-0.02248 -0.87979,-0.2127c-0.56063,-0.45537 -0.7986,-1.2599 -1.40884,-1.64624c-6.13022,-3.88105 -7.65026,-2.03468 -14.25321,-3.04062c-0.41236,0.47101 -0.90181,0.89787 -1.13513,1.46936c-1.10453,2.70544 -0.69916,5.80895 -1.28281,8.67229c-1.52488,7.48093 -0.72762,15.68558 -0.72762,23.35282c0,2.38134 0.03209,4.77357 0.07272,7.17111zM292.94419,119.34382c0.3179,0.04553 0.63843,0.10917 0.93517,0.00963c0.29235,-0.09807 -0.71007,-0.39671 -0.91067,-0.16253c-0.04042,0.04718 -0.04363,0.0986 -0.0245,0.1529z" fill="#ffffff" stroke-width="0.5"/><path d="M216.52166,120.37077c13.11583,0 13.11583,13.83642 13.11583,13.83642v3.19302c-0.19755,6.30982 -1.97903,12.13684 -3.19609,18.18145c-0.50461,2.50615 0.39062,6.53106 0.07109,9.05329c-0.78798,6.21986 -1.99488,13.2726 -4.17403,19.01978c0.29569,4.84395 -1.35273,9.87829 -1.84499,14.71194c-0.5702,5.59893 0.6734,11.41922 0,17.02944c-1.19876,9.98714 -5.01887,20.50401 -11.84899,27.57854c-1.51571,1.56994 -2.94609,3.35002 -4.82996,4.38531c-11.47991,6.30884 -26.48085,4.40969 -38.37867,1.24418c-2.08503,-0.85967 -4.28485,-1.45783 -6.25511,-2.579c-0.83718,-0.47639 -1.20217,-1.6124 -2.01782,-2.12868c-0.91193,-0.57722 -2.1148,-0.48712 -3.02673,-1.06434c-0.81565,-0.51628 -1.2072,-1.60365 -2.01782,-2.12868c-0.5489,-0.35552 -1.31496,-0.10681 -1.89379,-0.40484c-2.0274,-1.04388 -4.03564,-2.12868 -6.05346,-3.19302c-2.40335,-1.26769 -4.87333,-2.41 -7.18641,-3.85252c-0.81883,-0.51065 -1.20217,-1.6124 -2.01782,-2.12868c-0.91193,-0.57722 -2.12493,-0.46968 -3.02673,-1.06434c-1.2956,-0.85432 -2.26987,-2.15907 -3.43771,-3.19836c-1.6901,-1.50404 -3.82008,-2.55477 -5.13468,-4.43035c-1.55629,-2.22039 -3.05137,-7.28873 -4.03735,-10.4092c-0.59873,-1.89487 -2.31169,-7.20258 -2.52152,-8.54516c-0.78848,-5.04479 -0.16936,-10.93493 -0.16936,-16.05277c0,-5.93578 -0.54742,-12.3008 0.16936,-18.18145c0.13563,-1.11275 0.81963,-2.08902 1.00891,-3.19302c0.28138,-1.6412 -0.07608,-3.39365 0.39341,-4.98625c0.36009,-1.22147 1.59394,-1.99455 2.01782,-3.19302c0.16127,-0.45597 -0.51071,-0.92911 -0.39341,-1.39979c0.70401,-2.82505 1.52514,-5.65701 2.79839,-8.25091c0.70257,-1.4313 2.09125,-2.35636 3.03179,-3.62658c1.59071,-2.14828 3.09391,-4.38831 4.90437,-6.33339c0.66645,-0.716 1.26398,-1.51671 2.01782,-2.12868c0.10184,-0.08268 0.08444,0.50549 0.13512,0.38091c0.41942,-1.03097 0.46019,-2.23198 1.00891,-3.19302c0.55568,-0.97324 1.661,-1.50348 2.22518,-2.47127c0.91302,-1.56618 0.98578,-3.52789 1.53359,-5.27336c0,0 4.14759,-13.12638 16.59037,-8.75092c12.44278,4.37546 8.29518,17.50185 8.29518,17.50185c-1.3703,4.31399 -2.225,7.35321 -4.51987,11.75608c-0.39811,0.7638 -1.38674,1.03779 -1.81046,1.7861c-0.54538,0.96316 -0.42227,2.25724 -1.00891,3.19302c-1.08072,1.72391 -2.57198,3.11924 -3.90052,4.63827c-0.99802,1.14113 -2.26524,2.01854 -3.16691,3.24567c-0.74287,1.01101 -1.24139,2.21048 -2.01782,3.19302c-0.03553,0.04496 -0.07982,0.0981 -0.12988,0.15502c0.01411,1.21723 -0.14737,2.44569 -0.48681,3.59714c-0.36009,1.22147 -1.59394,1.99455 -2.01782,3.19302c-0.16127,0.45597 0.45799,0.91791 0.39341,1.39979c-0.14887,1.11087 -0.83147,2.08683 -1.00891,3.19302c-0.67209,4.19004 0.16936,9.43899 0.16936,13.74876c0,3.43777 -0.72981,8.26487 -0.16936,11.62007c0.33794,2.02309 1.97472,4.25602 2.41422,6.40695c0.00563,0.00326 0.01129,0.00655 0.01697,0.00987c0.34072,0.19904 0.25742,0.85954 0.59793,1.05901c0.92976,0.54465 2.1148,0.48712 3.02673,1.06434c0.81565,0.51628 1.2072,1.60365 2.01782,2.12868c0.5489,0.35552 1.31496,0.1068 1.89379,0.40483c2.0274,1.04388 4.03564,2.12868 6.05346,3.19302c2.40335,1.26769 4.87333,2.41001 7.1864,3.85253c0.81883,0.51065 1.20217,1.6124 2.01782,2.12868c0.91193,0.57722 2.1148,0.48712 3.02673,1.06434c1.56768,0.99228 2.51698,3.24343 1.81617,1.67835c2.01096,0.52441 3.95162,1.40687 6.00679,1.68056c3.96326,0.52777 7.98165,-0.56449 11.86926,-0.87811c0.2256,-0.0182 0.345,0.0147 0.38967,0.07778c0.08173,-0.04842 0.15254,-0.1092 0.20429,-0.19154c0.21213,-0.33749 -0.09362,-0.83757 0.04846,-1.21375c1.36002,-3.60107 2.66787,-5.06509 3.10109,-8.84052c0.63637,-5.54589 -0.49887,-11.44578 0,-17.02944c0.51977,-5.81761 1.9939,-11.3624 2.19065,-17.21827c2.06451,-5.44483 2.98346,-11.31578 3.89725,-17.16779c0.49756,-3.18644 -0.37156,-6.87311 0.07109,-10.10483c0.15209,-1.11038 0.83408,-2.08637 1.00891,-3.19302c0.16586,-1.04986 -0.1852,-2.14677 0,-3.19302c0.22564,-1.27471 2.20086,-5.33047 1.84846,-7.36271v-3.19302c0,0 0,-13.83642 13.11583,-13.83642z" fill="#7066ff" stroke-width="0.5"/><path d="M352.45128,260.92756c-8.41181,4.2059 -13.78091,-0.71631 -16.1073,-3.76061c-0.41051,-0.2077 -0.82101,-0.41541 -1.23152,-0.62311c-4.92584,-3.24685 -10.38337,-5.90995 -14.66734,-10.05145c-0.92454,-0.89379 -1.20162,-2.32953 -2.13733,-3.21161c-2.05468,-1.93691 -5.06247,-2.8666 -6.72875,-5.14626c-1.18299,-1.61846 -0.48676,-4.04448 -1.32138,-5.8672c-1.22767,-2.68113 -4.53161,-3.96753 -5.93275,-6.56222c-0.90112,-1.66872 -0.919,-3.70103 -1.69783,-5.4302c-0.7982,-1.77219 -2.22285,-3.21848 -3,-5c-0.34487,-0.79056 0.17305,-1.85002 -0.30217,-2.5698c-0.90763,-1.37474 -2.79562,-1.9394 -3.61747,-3.36707c-1.76582,-3.0675 -2.59462,-6.58729 -3.98623,-9.84169c-1.31558,-3.0766 -3.52784,-5.70989 -4.89437,-8.7642c-0.63004,-1.40819 -0.547,-3.07718 -1.18933,-4.47526c0,9.68104 0,19.36209 0,29.04313c0,3 0,6 0,9c0,1 0.69452,2.28053 0,3c-0.07573,0.07845 -0.14434,0.10519 -0.20722,0.0916l2.20722,5.9084c0,0 0,13 -13,13c-7.50619,0 -10.67831,-4.33407 -12.01885,-7.99723c-0.80542,-0.92752 -1.53061,-1.90139 -1.99158,-3.02788c-1.61435,-3.94507 -0.98957,-10.5555 -0.98957,-14.97488c0,-12 0,-24 0,-36c0,-1.86445 -0.05818,-3.78678 -0.11748,-5.72987c-0.55344,-1.46254 -0.88252,-3.2018 -0.88252,-5.27013c0,-2.07704 0.33186,-3.82224 0.88952,-5.28859c0.05088,-0.77521 0.11888,-1.54265 0.20788,-2.29979c0.1918,-1.63159 0.84544,-3.17957 1.12363,-4.79866c0.63421,-3.6911 0.42239,-7.48377 0.87637,-11.20133c0.49089,-4.01974 1.51045,-7.98015 2,-12c0.36266,-2.978 -0.34112,-6.01946 0,-9c0.15628,-1.36545 0.85336,-2.63348 1,-4c0.74309,-6.92512 -0.0974,-14.41515 -0.0974,-21.41161c0,0 0,-13 13,-13c13,0 13,13 13,13c0,8.10207 0.66519,16.53559 -0.0974,24.58838c-0.12957,1.36825 -0.80841,2.63905 -1,4c-0.41821,2.97071 0.30927,6.01599 0,9c-0.14168,1.36704 -0.82953,2.63625 -1,4c-0.61001,4.88002 -1.18207,9.7883 -1.78944,14.70054c0.229,-0.04508 0.45943,-0.08078 0.692,-0.1023c0.34213,-0.03165 0.6914,0.0101 1.04156,0.07226c0.89313,-0.42564 1.90278,-0.76253 3.04412,-0.98028c0.1157,-0.32896 0.24673,-0.64663 0.50792,-0.82475c1.84738,-1.25983 4.10672,-1.81026 6,-3c0.94868,-0.59616 1.4726,-1.74989 2.44485,-2.30678c3.06167,-1.75367 6.56632,-2.64308 9.63134,-4.3909c1.45338,-0.82879 2.735,-1.96982 4.26585,-2.64486c1.25754,-0.55452 2.71609,-0.50965 4,-1c2.2455,-0.85761 3.77047,-3.10168 6,-4c2.45204,-0.98798 5.11387,-1.34261 7.67081,-2.01391l6.58838,-0.0974c0,0 13,0 13,13c0,13 -13,13 -13,13l-3.41161,-0.09741c-0.5505,-0.02327 -0.91882,0.60842 -1.37728,0.91406c-1.61624,1.07749 -3.18376,2.26774 -4.9519,3.07203c-1.25102,0.56906 -2.72868,0.47784 -4,1c-2.46363,1.01187 -4.48807,2.91573 -6.93367,3.97043c-1.01659,0.43842 -2.20681,0.44647 -3.16915,0.99381c-0.66613,0.37887 -0.90419,1.28884 -1.55515,1.69321c-1.15028,0.71455 -2.42228,1.21385 -3.66188,1.76909c0.25676,0.76507 0.53428,1.52147 0.87132,2.25262c1.47261,3.19462 3.78739,5.97445 5.10563,9.2358c0.80935,2.00235 0.91254,4.30043 2.01377,6.15832c1.08391,1.82869 3.28318,2.81349 4.38253,4.63293c0.98077,1.62319 0.919,3.70102 1.69783,5.4302c0.7982,1.77219 2.22285,3.21848 3,5c0.34487,0.79056 0.01481,1.75658 0.30217,2.5698c0.06738,0.19067 0.49011,-0.16305 0.60666,0.00221c2.27609,3.22705 4.61278,6.43653 6.58501,9.85555c0.24883,0.16407 0.52337,0.35225 0.82545,0.56655c1.67257,1.18656 2.44509,3.30653 3.86267,4.78839c2.44203,2.55274 6.39128,3.95818 9.33266,5.94855c1.09625,0.53876 2.19248,1.07752 3.28873,1.61628l6.81377,7.81377c0,0 5.81378,11.62756 -5.81377,17.44133z" fill="#7066ff" stroke-width="0.5"/></g></g></svg>